<svg id="Capa_1" data-name="Capa 1" xmlns="http://www.w3.org/2000/svg" viewBox="0 0 300 300"><defs><style>.cls-1{fill:#fff;}</style></defs><rect x="0.5" y="0.5" width="299" height="299"/><path d="M299,1V299H1V1H299m1-1H0V300H300V0Z"/><path class="cls-1" d="M133.77,61h6.83l-9.75,45.84h12.88l-1.89,6.27H122.69Z"/><path class="cls-1" d="M157.16,97.89l-5.28,15.17h-7.19c1.87-4.94,17-46.58,19.09-52.11H174l-2.73,52.11h-6.89l.94-15.17Zm8.56-6.33c.62-8.87,1.21-18.94,1.67-24.31h-.26c-1.11,4.3-4.82,15.53-7.78,24.31Z"/><path class="cls-1" d="M89.86,203.31l-.29,1.22c-2.19,8.95-4.31,18.08-16.92,18.08-11.26,0-13.74-7.46-11.4-18.45l6.64-31.11c2.6-12.08,6.18-18.44,16.31-18.44,13.37,0,13.64,10,11.66,18l-.26,1.06H86.89l.48-2.24c1.21-5.76.85-9.32-3.68-9.32-3.8,0-5.21,3.15-6.55,9.37L70,205c-1.37,6.63-.86,10.13,3.54,10.13,3.9,0,5.33-3.34,6.82-9.58l.54-2.25Z"/><path class="cls-1" d="M106.41,155.54h8.67l-5.72,26.93H121l5.72-26.93h8.74l-14.06,66.14H112.7l6.61-31.25H107.62L101,221.68H92.35Z"/><path class="cls-1" d="M169.78,173.13,163,204.89c-2.34,11.09-5.85,17.72-17.31,17.72s-14.4-7.55-12.14-18.52l6.9-33.09c2.26-10.87,7.67-16.39,16.86-16.39C167.74,154.61,172.22,161.78,169.78,173.13ZM149.38,171l-7.25,34.41c-1.24,5.77-.4,9.69,4.51,9.69,4.19,0,6.09-3.41,7.41-9.41l7.24-34.24c1.22-5.76,0-9.34-4.74-9.34C152.72,162.15,150.58,165.23,149.38,171Z"/><path class="cls-1" d="M199.06,203.31l-.3,1.22c-2.19,8.95-4.3,18.08-16.91,18.08-11.26,0-13.75-7.46-11.4-18.45l6.63-31.11c2.6-12.08,6.19-18.44,16.31-18.44,13.37,0,13.65,10,11.67,18l-.26,1.06h-8.71l.47-2.24c1.21-5.76.85-9.32-3.68-9.32-3.79,0-5.21,3.15-6.54,9.37L179.22,205c-1.38,6.63-.86,10.13,3.54,10.13,3.9,0,5.32-3.34,6.82-9.58l.53-2.25Z"/><path class="cls-1" d="M240.67,173.13l-6.76,31.76c-2.35,11.09-5.86,17.72-17.31,17.72s-14.4-7.55-12.14-18.52L211.35,171c2.26-10.87,7.67-16.39,16.86-16.39C238.62,154.61,243.1,161.78,240.67,173.13ZM220.26,171,213,205.45c-1.25,5.77-.41,9.69,4.5,9.69,4.19,0,6.09-3.41,7.41-9.41l7.24-34.24c1.22-5.76,0-9.34-4.73-9.34C223.61,162.15,221.46,165.23,220.26,171Z"/></svg>